<svg width="16" height="13" viewBox="0 0 16 13" fill="none" xmlns="http://www.w3.org/2000/svg">
<path d="M13.7974 3.1648C14.3986 2.73406 14.9397 2.21717 15.3605 1.61413C14.8194 1.84386 14.1882 2.01615 13.557 2.07359C14.2183 1.70028 14.6992 1.12595 14.9397 0.408045C14.3385 0.75264 13.6471 1.01109 12.9558 1.15467C12.3546 0.551626 11.543 0.207031 10.6413 0.207031C8.89787 0.207031 7.48511 1.55669 7.48511 3.22224C7.48511 3.45197 7.51517 3.6817 7.57528 3.91143C4.96018 3.76785 2.6156 2.56176 1.05254 0.75264C0.782015 1.18338 0.631721 1.70028 0.631721 2.2746C0.631721 3.30839 1.17278 4.22731 2.04448 4.77291C1.53348 4.7442 1.02248 4.62933 0.601662 4.3996V4.42832C0.601662 5.89285 1.68378 7.09893 3.12659 7.38609C2.88612 7.44352 2.58554 7.50096 2.31501 7.50096C2.1046 7.50096 1.92425 7.47224 1.71383 7.44352C2.1046 8.64961 3.27689 9.51109 4.65959 9.53981C3.57747 10.3439 2.22483 10.832 0.751956 10.832C0.481428 10.832 0.240958 10.8033 0.000488281 10.7746C1.38319 11.6361 3.03642 12.1243 4.83994 12.1243C10.6413 12.1243 13.7974 7.55839 13.7974 3.56683C13.7974 3.42325 13.7974 3.30839 13.7974 3.1648Z" fill="#14181F"/>
</svg>
