<svg width="24" height="24" viewBox="0 0 24 24" fill="none" xmlns="http://www.w3.org/2000/svg">
<path d="M4.04343 15.3242L3.19143 14.5082C2.57808 13.9222 2.08623 13.221 1.744 12.4448C1.40177 11.6686 1.21587 10.8326 1.19692 9.98447C1.17798 9.13637 1.32636 8.29286 1.63358 7.50214C1.94081 6.71143 2.40086 5.98901 2.98743 5.37619L3.80343 4.53619C4.38654 3.92216 5.08536 3.42956 5.85965 3.08675C6.63394 2.74393 7.4684 2.55768 8.31497 2.53872C9.16155 2.51976 10.0035 2.66846 10.7924 2.97626C11.5812 3.28407 12.3014 3.74489 12.9114 4.33219L13.7634 5.13619C14.9993 6.32134 15.7147 7.94818 15.753 9.66002C15.7912 11.3719 15.1491 13.029 13.9674 14.2682L13.1994 15.1202C12.6147 15.74 11.9127 16.2374 11.1341 16.5836C10.3555 16.9298 9.51595 17.1179 8.66409 17.1368C7.81223 17.1558 6.96508 17.0054 6.17187 16.6942C5.37865 16.383 4.65516 15.9173 4.04343 15.3242V15.3242Z" stroke="#14181F" stroke-width="2" stroke-linecap="round" stroke-linejoin="round"/>
<path d="M13.9688 14.2681L21.1448 19.6801" stroke="#14181F" stroke-width="2" stroke-linecap="round" stroke-linejoin="round"/>
<path d="M18.3594 14.9522C17.3154 14.8682 16.1154 16.1522 15.9594 17.3522C15.913 17.6823 15.9478 18.0187 16.0608 18.3323C16.1737 18.6459 16.3613 18.9273 16.6074 19.1522C17.1234 19.7522 20.7234 23.9522 22.8954 20.8322C23.1257 20.5033 23.2888 20.1322 23.3754 19.7402C23.4597 19.258 23.3613 18.7617 23.0994 18.3482C22.5898 17.4828 21.9048 16.7337 21.0885 16.1488C20.2722 15.564 19.3426 15.1564 18.3594 14.9522Z" fill="#14181F"/>
</svg>
