<svg width="331" height="359" viewBox="0 0 331 359" fill="none" xmlns="http://www.w3.org/2000/svg">
<rect width="330.19" height="358.557" rx="30" fill="#EEF2ED"/>
<rect x="28.3667" y="30.6362" width="106.659" height="28.3668" rx="14.1834" fill="black"/>
<path d="M65.9128 49.1749V38.2658H73.1358V40.1674H68.2192V42.7668H72.6564V44.6685H68.2192V49.1749H65.9128ZM74.5127 49.1749V40.993H76.7127V42.4206H76.7979C76.947 41.9128 77.1974 41.5293 77.549 41.27C77.9005 41.0073 78.3054 40.8759 78.7634 40.8759C78.8771 40.8759 78.9996 40.883 79.131 40.8972C79.2624 40.9114 79.3778 40.9309 79.4772 40.9558V42.9693C79.3707 42.9373 79.2233 42.9089 79.0351 42.884C78.8469 42.8592 78.6747 42.8467 78.5184 42.8467C78.1846 42.8467 77.8863 42.9195 77.6235 43.0651C77.3643 43.2072 77.1583 43.406 77.0056 43.6617C76.8565 43.9174 76.7819 44.2122 76.7819 44.546V49.1749H74.5127ZM83.9983 49.3347C83.1566 49.3347 82.4322 49.1642 81.825 48.8233C81.2213 48.4788 80.7561 47.9923 80.4294 47.3638C80.1027 46.7317 79.9393 45.9842 79.9393 45.1212C79.9393 44.2796 80.1027 43.541 80.4294 42.9053C80.7561 42.2697 81.216 41.7743 81.809 41.4192C82.4056 41.0641 83.1052 40.8865 83.9077 40.8865C84.4475 40.8865 84.95 40.9735 85.4152 41.1475C85.8839 41.318 86.2923 41.5754 86.6403 41.9199C86.9919 42.2644 87.2653 42.6976 87.4606 43.2196C87.6559 43.7381 87.7536 44.3453 87.7536 45.0413V45.6646H80.8449V44.2583H85.6176C85.6176 43.9316 85.5466 43.6422 85.4045 43.3901C85.2625 43.1379 85.0654 42.9408 84.8133 42.7988C84.5647 42.6532 84.2753 42.5804 83.945 42.5804C83.6005 42.5804 83.2951 42.6603 83.0288 42.8201C82.766 42.9764 82.5601 43.1876 82.4109 43.454C82.2618 43.7168 82.1854 44.0097 82.1819 44.3329V45.6699C82.1819 46.0747 82.2564 46.4245 82.4056 46.7193C82.5583 47.014 82.7731 47.2413 83.0501 47.4011C83.3271 47.5609 83.6556 47.6408 84.0356 47.6408C84.2877 47.6408 84.5185 47.6053 84.728 47.5342C84.9375 47.4632 85.1169 47.3567 85.266 47.2146C85.4152 47.0726 85.5288 46.8986 85.6069 46.6926L87.7057 46.8311C87.5991 47.3354 87.3807 47.7757 87.0505 48.1521C86.7238 48.525 86.3012 48.8162 85.7827 49.0257C85.2678 49.2317 84.673 49.3347 83.9983 49.3347ZM92.9631 49.3347C92.1215 49.3347 91.3971 49.1642 90.7898 48.8233C90.1861 48.4788 89.7209 47.9923 89.3942 47.3638C89.0675 46.7317 88.9042 45.9842 88.9042 45.1212C88.9042 44.2796 89.0675 43.541 89.3942 42.9053C89.7209 42.2697 90.1808 41.7743 90.7738 41.4192C91.3704 41.0641 92.07 40.8865 92.8726 40.8865C93.4123 40.8865 93.9148 40.9735 94.38 41.1475C94.8488 41.318 95.2571 41.5754 95.6052 41.9199C95.9567 42.2644 96.2302 42.6976 96.4255 43.2196C96.6208 43.7381 96.7184 44.3453 96.7184 45.0413V45.6646H89.8097V44.2583H94.5824C94.5824 43.9316 94.5114 43.6422 94.3694 43.3901C94.2273 43.1379 94.0302 42.9408 93.7781 42.7988C93.5295 42.6532 93.2401 42.5804 92.9098 42.5804C92.5654 42.5804 92.26 42.6603 91.9936 42.8201C91.7309 42.9764 91.5249 43.1876 91.3758 43.454C91.2266 43.7168 91.1503 44.0097 91.1467 44.3329V45.6699C91.1467 46.0747 91.2213 46.4245 91.3704 46.7193C91.5231 47.014 91.738 47.2413 92.015 47.4011C92.2919 47.5609 92.6204 47.6408 93.0004 47.6408C93.2525 47.6408 93.4834 47.6053 93.6929 47.5342C93.9024 47.4632 94.0817 47.3567 94.2309 47.2146C94.38 47.0726 94.4936 46.8986 94.5718 46.6926L96.6705 46.8311C96.564 47.3354 96.3456 47.7757 96.0153 48.1521C95.6886 48.525 95.266 48.8162 94.7476 49.0257C94.2326 49.2317 93.6378 49.3347 92.9631 49.3347Z" fill="white"/>
</svg>
