<?xml version="1.0" encoding="UTF-8"?>
<svg id="Layer_2" data-name="Layer 2" xmlns="http://www.w3.org/2000/svg" viewBox="0 0 393.69 393.69">
  <defs>
    <style>
      .cls-1 {
        fill: #fff;
      }

      .cls-2 {
        fill: #333;
      }
    </style>
  </defs>
  <g id="icon">
    <circle class="cls-1" cx="196.84" cy="196.84" r="196.84"/>
    <g>
      <g>
        <path class="cls-2" d="M118.11,111.28c2.6-3.89,1.02-9.84-2.94-12.24-4.65-2.83-9.53,.8-11.38,5.12-1.39,2.96-1.19,7.86,2,9.6,3.34,1.82,10.13,.8,12.32-2.48Zm-2.35-.79c-1.69,1.66-6.11,2.18-8.22,1.43-2.43-.86-2.71-4.49-1.72-6.59,1.18-2.76,3.85-5.95,7.31-4.72,3.47,1.24,5.43,7.12,2.63,9.87Z"/>
        <path class="cls-2" d="M98.69,128.53c-3.87,.51-5.82,3.22-6.28,6.83-.06,.15-.1,.32-.08,.53-.02,.2,.01,.36,.07,.51,.57,3.72,3.26,7.42,7.47,6.65,3.92-.72,6.82-5.17,6.41-9.06-.39-3.74-4.02-5.93-7.59-5.46Zm2.22,11.69c-3.27,1.89-5.92-1.23-6.23-4.33,.2-2.34,1.09-4.11,3.41-4.82,2.06-.63,4.85,.02,5.63,2.25,.83,2.36-.68,5.67-2.81,6.9Z"/>
        <path class="cls-2" d="M137.25,126.3c1.62-3.95-.08-7.99-4.16-9.43-4.38-1.54-8.1,1.03-9.96,4.93-.02,.05-.02,.09-.04,.14-.02,.05-.06,.08-.08,.14-3.12,8.78,11.07,11.96,14.24,4.21Zm-6.32-7.53c3.23,.28,5.34,2.98,4.34,6.15-1.78,5.62-12.08,4.03-10.02-2.11,1.13-2.28,2.9-4.28,5.68-4.04Z"/>
        <path class="cls-2" d="M127.23,106.75c1.3-.17,3.43,1.37,3.1,2.83-.33,1.47,1.93,2.1,2.26,.62,.64-2.84-2.45-6.17-5.36-5.8-.63,.08-1.16,.48-1.17,1.17,0,.57,.54,1.25,1.17,1.17Z"/>
        <path class="cls-2" d="M114.2,126.41c1.35,.66,2.54-1.36,1.18-2.02-.55-.27-1.05-.49-1.3-1.09-.24-.58-.17-1.17,.31-1.59,1.13-1.01-.53-2.66-1.66-1.66-.99,.89-1.35,2.33-1,3.6,.36,1.33,1.26,2.17,2.46,2.76Z"/>
        <path class="cls-2" d="M143.79,123.24c1.36,.64,2.55-1.38,1.18-2.02-1.85-.88-1.9-2.86-.82-4.39,.87-1.24-1.16-2.41-2.02-1.18-1.77,2.53-1.28,6.21,1.66,7.6Z"/>
        <path class="cls-2" d="M90.39,145.15c-1.12,.32-2.96-.19-2.6-1.69,.35-1.47-1.9-2.09-2.26-.62-.79,3.25,2.57,5.42,5.48,4.57,1.45-.42,.83-2.68-.62-2.26Z"/>
        <path class="cls-2" d="M97.25,117.14c.86,.17,1.33,.45,1.44,1.39,.09,.78-.12,1.78-.95,2.06-1.42,.48-.81,2.75,.62,2.26,1.85-.63,2.8-2.41,2.67-4.32-.13-1.93-1.27-3.27-3.16-3.65-1.47-.3-2.1,1.96-.62,2.26Z"/>
        <path class="cls-2" d="M114.98,133.05c-1.61,.6-2.65,2.07-2.54,3.82,.1,1.5,2.44,1.51,2.34,0-.06-.89,.33-1.39,1.17-1.67,.9-.31,1.46-.24,2.14,.46,1.05,1.09,2.71-.57,1.66-1.66-1.36-1.41-2.95-1.63-4.77-.95Z"/>
        <path class="cls-2" d="M166.83,116.28c-1.3-8.27-6.81-13.57-12.93-18.79-6.62-5.64-13.14-10.5-21.26-13.86-6.67-2.75-16.83-6.85-24.27-5.19-4.7,1.04-6.58,6.36-5.07,10.67-2.97,9.6-8.61,18.14-12.53,27.36-4.52,10.63-9.16,21.14-14.19,31.54-1.13,2.33-4.55,6.89-3.49,9.9,.01,.06,0,.12,.02,.18,1.33,3.86,5.08,6.29,9.06,5.45,8.04-1.68,16.37-6.21,23.84-9.74,.14,1.57-.32,3.16,1.25,4.5,2.88,2.46,4.63-.45,5-3.11,.13-.96,0-2.21-.12-3.49,.08-.01,.15,0,.23-.04,1.56-.61,3.13-1.21,4.69-1.82,0,.78-.09,1.6-.09,2.3,.02,1.97,.06,3.95,.33,5.91,.44,3.14,2.24,8.76,6.46,6.2,5.09-3.08,2.58-12.16,2.53-18.09,10.1-5.32,20.53-10.03,30.6-15.41,6.5-3.48,11.74-6.51,9.94-14.49Zm-44.82-33.78c6.41,1.74,12.65,4.18,18.38,7.58,8,4.74,18.49,12.48,22.61,21.71-.99-.31-2.12-.3-3.39,.16-2.43,.9-3.91,2.85-4.55,5.11-4.14-7.1-11.95-11.98-18.63-16.43-9.48-6.31-19.73-11.03-31.07-12.55-3.79-9.76,11.81-6.9,16.65-5.58Zm-44.47,77.53c1.65-.3,3.37-1.17,4.73-1.62,4.63-1.54,9.33-3.04,13.83-4.93,2.34-.98,6.89-4.12,9.02-1.82-5.12,2.51-21.29,11.62-27.58,8.37Zm34.44-10.7c-.01-.99,.07-1.9,.42-2.58,1.13-2.19,3.21-.81,4.14,.8-1.52,.59-3.04,1.18-4.56,1.77Zm11.17,12.17c-1.46,.53-3.02-1.78-3.38-2.65-.38-.92-.29-2.41-.36-3.41-.14-2.2,0-4.4-.09-6.59-.17-3.67-2.07-7.97-6.56-6.02-3.84,1.67-2.67,6.23-2.74,9.59-.03,1.61-.35,5.37-1.99,1.86-.31-.67,.1-1.7-.04-2.44-.28-1.44-.81-2.56-2.2-3.2-3.97-1.82-10.74,2.79-14.26,4.07-3.55,1.29-11.02,5.43-14.55,3.82-2.3-1.05-1.37-1.21-.33-3.35,.8-1.65,1.6-3.3,2.39-4.95,4.66-9.66,9.04-19.4,13.18-29.29,4.03-9.63,9.87-18.57,13.08-28.52,10.26,1.38,19.61,5.6,28.28,11.16,7.69,4.93,17.79,10.94,20.97,19.98-7.56,4.89-15.41,8.98-23.23,13.4-6.33,3.58-7.58,7.67-7.17,14.78,.09,1.57,1.07,11-1.01,11.75Zm24.03-28.54c-6.92,3.4-13.81,6.86-20.64,10.44,.03-.11,.04-.24,.08-.35,1.66-5.4,8.6-7.28,13.08-9.68,5.77-3.1,11.32-6.66,16.8-10.25,.53-.18,.96-.68,.77-1.37-.75-2.86-.05-5.99,2.75-7.4,2.46-1.23,3.9,.3,4.55,2.55,1.96,8.72-11.14,13-17.38,16.06Z"/>
        <path class="cls-2" d="M116.32,85.56c5.88,1.12,11.13,3.29,16.28,6.33,1.3,.77,2.48-1.26,1.18-2.02-5.34-3.15-10.72-5.41-16.84-6.57-1.47-.28-2.11,1.98-.62,2.26Z"/>
        <path class="cls-2" d="M137.39,94.67c1.51,0,1.51-2.34,0-2.34s-1.51,2.34,0,2.34Z"/>
      </g>
      <g>
        <path class="cls-2" d="M314.8,125.58c1.25-1.1,2.14-2.57,2.43-4.59,1.85-12.91-9.35-25.7-19.79-31.47-12.79-7.06-26.24-9.63-40.65-6.26-8.79,2.06-15,7.09-20.63,13.97-4.55,5.56-9.72,12.93-9.79,20.45-.02,2.34,.5,7.01,2.16,8.65,.15,.14,.34,.25,.51,.38-3.05,1.97-6.95,5.77-5.05,9.17,.87,1.56,2.92,1.87,4.48,1.78,.65-.04,1.35-.34,2.03-.61-.23,2.75-.15,6.33,1.5,8.66-2.34,.4-4.62,1.29-5.46,3.47-1.09,2.86-.24,9.47,2.37,11.49,1.34,1.03,3.11,.91,4.69,1.1,3.78,.47,7.47,.98,11.29,1.09,8.7,.24,17.4,.48,26.1,.51,8.77,.03,17.54-.15,26.31-.53,5.07-.22,12.38,.06,16.86-3.02,3.13-2.15,3.58-6.89,2.6-10.34-.96-3.38-3.31-4.49-6.14-4.9,2.38-2.1,3.32-5.05,2.25-8.34,.35,.19,.72,.36,1.19,.38,1.75,.06,3.89-1.33,4.93-2.63,2.89-3.62-.94-6.64-4.21-8.42Zm-84.67-13.84c3.24-9.21,11.06-19.23,19.88-23.64,7.96-3.97,19.03-5.01,27.76-3.6,12.41,2,26.07,9.42,32.71,20.33,2.36,3.88,4.11,8.67,4.37,13.24,.43,7.5-7.33,8.26-13.18,8.65-9.61,.65-19.19,.57-28.82,.43-8.9-.08-17.8-.09-26.7-.25-4.37-.08-13.46,.81-16.34-3.13-2.24-3.08-.77-8.96,.31-12.03Zm84.38,38.37c.82,2.22,.35,6.12-1.53,7.69-2.54,2.14-7.99,2.27-11.11,2.48-10.26,.69-20.6,.79-30.88,.75-9.49-.03-19.05-.06-28.53-.59-4.03-.23-11.79,.16-13.34-4.18-1.82-5.08,.97-8.09,5.81-8.48,1.81,.52,3.9,.35,5.76,.41,11.69,.41,23.46,1.22,35.15,.46,6.02-.39,11.98-.94,18.02-.97,4.53-.02,8.93,.65,13.22-1,2.97,.05,6.1-.16,7.43,3.44Zm-21.7-4.77c-7.38,.09-14.7,.99-22.08,1.19-6.92,.19-13.84-.1-20.75-.35-3.4-.12-6.8-.24-10.2-.36-5.87-.21-7.37-3.95-6.9-9.16,2.1,.34,1.94,2,3.18,3.49,3.58,4.31,9.11,1.12,12.46-1.51,2.35-1.84,3.68-2.98,6.69-1.5,1.11,.54,1.93,1.49,3.12,1.94,2.65,.98,4.32-.2,6.82-.9,6.26-1.76,6.07-.63,10.74,1.65,1.18,.58,2.41,1.05,3.7,1.31,3.19,.63,6.12,.07,8.91-1.49,3.54-1.96,4.36-3.91,9.48-2.24,.94,.31,1.73,1.03,2.69,1.33,2.16,.66,3.75,.41,5.52-.96,1.43-1.11,2.18-2.15,3.8-2.27,5.93,10.75-11.73,9.79-17.2,9.85Zm19.75-11.8c-1.45-.32-2.3-1.49-3.94-1.1-1.19,.28-1.8,1.57-2.72,2.24-1.76,1.3-2.98,2.03-5.51,1.33-.95-.26-1.81-1.04-2.77-1.36-4.27-1.41-6.69,.96-10.3,2.96-4.58,2.53-8.71,.86-12.89-1.44-1.84-1.01-3.5-1.84-5.66-1.67-2.74,.21-4.79,1.63-7.62,1.78-3.73,.2-3.77-1.43-6.87-2.28-3.08-.85-5.11,1.24-7.41,2.97-2.53,1.89-2.64,2.13-6.16,1.47-4.55-.84-2.44-.59-4.46-2.96-.56-.66-1.32-1.27-2.17-1.46-1.62-.38-2.93,.97-4.47,1.01-6.8,.2-.79-5.6,2-7.09,2.79,.83,6.33,.91,8.57,1.08,10.82,.8,21.83,.37,32.68,.47,9.93,.15,19.85,.24,29.77-.5,3.14-.23,6.95-.56,9.91-1.95,1.11,.54,4.33,2.11,4.68,3.33,.83,2.81-2.83,3.58-4.65,3.17Z"/>
        <path class="cls-2" d="M241.91,123.8c1.5-.06,1.51-2.41,0-2.34-2.62,.11-7.49,.54-7.04-3.3,.31-2.62,2.18-5.26,3.93-7.11,1.04-1.09-.62-2.75-1.66-1.66-2.37,2.5-5.65,7.31-4.84,11.03,.8,3.66,6.86,3.49,9.6,3.38Z"/>
        <path class="cls-2" d="M247.38,123.82c1.51,0,1.51-2.34,0-2.34s-1.51,2.34,0,2.34Z"/>
        <path class="cls-2" d="M252.46,93.64c.7,0,1.1-.55,1.17-1.17,.05-.43,.1-.86,.16-1.28,.08-.63-.59-1.17-1.17-1.17-.7,0-1.1,.55-1.17,1.17-.05,.43-.1,.86-.16,1.28-.08,.63,.59,1.17,1.17,1.17Z"/>
        <path class="cls-2" d="M265.23,91.28c.36-.29,.75-.51,1.17-.7,1.37-.63,.18-2.66-1.18-2.02-.61,.28-1.13,.64-1.64,1.07-1.17,.96,.5,2.61,1.66,1.66Z"/>
        <path class="cls-2" d="M277.8,90.85c1.36,.64,2.55-1.38,1.18-2.02-.64-.31-1.24-.66-1.82-1.06-1.24-.87-2.41,1.16-1.18,2.02,.58,.41,1.18,.76,1.82,1.06Z"/>
        <path class="cls-2" d="M286.22,93.77c.29-.29,.57-.42,.96-.51,1.47-.34,.85-2.6-.62-2.26-.77,.18-1.43,.56-1.99,1.11-1.08,1.06,.58,2.72,1.66,1.66Z"/>
        <path class="cls-2" d="M271.46,100.35c.95,1.17,2.6-.49,1.66-1.66-.21-.26-.44-.5-.69-.73-1.12-1.01-2.78,.64-1.66,1.66,.25,.23,.47,.46,.69,.73Z"/>
        <path class="cls-2" d="M257.68,100.01c.32-.35,.64-.6,1.06-.82,1.34-.7,.15-2.72-1.18-2.02-.58,.3-1.09,.7-1.53,1.18-1.01,1.11,.64,2.78,1.66,1.66Z"/>
        <path class="cls-2" d="M282.21,100.62c1.34,.69,2.53-1.33,1.18-2.02-.49-.25-.85-.54-1.15-1.01-.81-1.27-2.84-.09-2.02,1.18,.5,.79,1.15,1.42,1.99,1.85Z"/>
        <path class="cls-2" d="M245.96,99.52c.05-.28,.11-.51,.35-.69,1.23-.86,.06-2.89-1.18-2.02-.74,.52-1.27,1.18-1.43,2.09-.27,1.47,1.99,2.11,2.26,.62Z"/>
        <path class="cls-2" d="M292.63,98.13c1.15,.96,2.82-.69,1.66-1.66-.35-.29-.7-.58-1.05-.87-1.15-.96-2.82,.69-1.66,1.66,.35,.29,.7,.58,1.05,.87Z"/>
      </g>
      <g>
        <path class="cls-2" d="M165.89,268.97c-.38-11.21-2.13-20.11-10.31-28.19-6.16-6.08-11.7-11.28-20.7-9.43-6.16,1.27-11.12,2.12-17.5,1.21-4.65-.67-9.43-1.66-14.11-.64-9.23,2-14.36,10.41-19,17.87-4.36,7-7.08,15.53-8.63,23.64-3.53,18.43,6.87,37.83,26.07,41.24,.06,.01,.12,0,.18,0,.05,.01,.08,.04,.14,.05,10.41,1.35,19.6,1.72,29.46-2.39,8.8-3.67,20.18-8.85,26.31-16.48,2.81-3.49,4.52-8.68,6.21-12.76,1.85-4.48,2.04-9.31,1.87-14.09Zm-2.89,9.5c-.88,3.95-3.15,8.48-4.92,12.22-4.23,8.96-16.38,14.47-25.03,18.38-10.32,4.67-19.76,4.71-30.74,3.31-16.49-2.95-26.68-18.83-24.89-35.17,.63-5.71,2.5-11.53,4.43-16.91,2.87-8,8.59-18.6,15.82-23.48,8.84-5.96,18.62-.72,28.21-1.28,2.76-.16,5.38-.95,8.07-1.58,6.01-1.4,9.74-.54,14.51,3.44,3.31,2.76,6.61,5.83,9.28,9.23,4.07,5.18,5.05,10.93,5.51,17.34,.35,4.75,.8,9.8-.25,14.49Z"/>
        <path class="cls-2" d="M120.57,249.34c-10.2-2.72-20.97-.43-24.58,10.81-3.13,9.74,2.03,20.83,11.58,24.57,22.18,8.66,34.33-26.44,13-35.37Zm-12.96,32.8c-8-3.64-12.02-13.01-9.36-21.37,3.19-10.03,12.86-11.52,21.7-9.17,18.93,7.92,6.98,39.34-12.34,30.54Z"/>
        <path class="cls-2" d="M104.59,258.97c-4.58,2.85-4.35,8.66-2.18,13,.67,1.35,2.69,.16,2.02-1.18-1.57-3.14-2.08-7.66,1.34-9.79,1.28-.8,.1-2.82-1.18-2.02Z"/>
        <path class="cls-2" d="M108.58,255.9c-1.51,0-1.51,2.34,0,2.34s1.51-2.34,0-2.34Z"/>
      </g>
      <g>
        <path class="cls-2" d="M318.05,243.99c-.14-.13-.28-.26-.43-.4,.42-.49,1.12-.84,1.62-1.24,.78-.63,1.2-.98,1.5-1.95,.25-.78-.41-1.42-1.13-1.48-1.91-.16-3.83-.22-5.74-.24-.11-1.21-.52-2.3-1.26-3.35-.39-.55-1.33-.88-1.84-.24-1.56,1.98-2.69,4.09-3.44,6.47-3.01-1.41-6.73-1.91-9.32-1.58-4.43,.57-8.45,3.38-12.52,4.99-5.03,1.99-10.09,3.06-15.53,2.94-5.52-.12-9.84-1.49-14.8-3.87-2.91-1.4-5.74-3.02-9.01-3.41-3.31-.4-6.47,.55-8.89,2.48-.92-2.66-2.85-8.34-5.89-4.88-.72,.82-.95,1.98-2.06,2.29-.74,.2-1.5-.07-2.23,.36-1.75,1.02-.97,2.76-.79,4.35-1.7,.99-4.59,2.13-3.11,4.54,.61,.99,1.76,1.12,2.8,1.14,2.3,.04,4.64-.15,6.95-.25-2.2,13.11,18.32,19.55,28.32,21.26-.73,5.04-1,10.7,.66,14.8,1.68,4.14,5.9,6.04,5.8,11.18-.09,5.07,.14,10.16-.09,15.22-.07,1.51,2.28,1.5,2.34,0,.21-4.74-.05-9.48,.05-14.22,.07-3.3,.02-5.43-1.99-8.12-3.02-4.03-4.86-6.99-4.7-12.28,.1-3.52,.38-7.22,1.03-10.7,1.57,.12,3.16,.01,4.73-.22-.05,4.23,.03,8.49,.49,12.69,.25,2.29,1.29,4.89,4.1,4.56,6.16-.71,4.6-12.78,3.97-17.62,1.67-.06,3.33-.2,4.97-.46,1.44,6.95,2.73,16.25-1.86,21.78-2.39,2.88-3.84,4.04-3.74,7.97,.14,5.54-.14,11.09,.1,16.62,.07,1.5,2.41,1.51,2.34,0-.13-2.9-.07-5.77,0-8.67,.07-2.76-.59-6.14-.16-8.83,.72-4.58,5.58-6.64,6.51-11.11,.82-3.93,.61-8.51,.01-12.87,7.2-1.72,14.69-4.83,20.39-9.61,3.38-2.84,6.65-8.73,6.27-13.66,2.31,.07,4.55,.46,6.77,1.21,.58,.2,1.31-.23,1.44-.82,.48-2.19-1.19-3.4-2.67-4.77Zm-29.38,2.15c.72,.69,1.44,1.4,2.06,2.18,.42,.52,.81,1.09,1.11,1.69,.22,.43,.39,.87,.5,1.34,.28,.56,.11,.82-.5,.79-1.23,.55-2.68-1.26-3.45-2.04-.89-.9-1.78-1.81-2.68-2.71,.14-.05,.27-.1,.41-.15,.86-.34,1.71-.71,2.55-1.09Zm-15.2,4.01c0,.2,.03,.42,.17,.64,.49,.75,.94,1.51,1.33,2.32,.26,.53,.83,1.49,.9,2.25-1.4,.18-3.15-2.12-3.75-2.94-.5-.69-.95-1.43-1.37-2.17,.07,0,.13,0,.2,0,.85,0,1.69-.04,2.52-.1Zm-17.33-3.02s0,.03,0,.05c.5,1.36,1.09,2.8,1.19,4.25,.06,.89,.37,2.63-.82,1.37-.51-.53-.93-1.19-1.35-1.8-1.29-1.87-2.37-3.86-3.26-5.94,1.46,.69,2.88,1.43,4.23,2.06Zm-30.02,.75c.5-.6,1.71-.53,2.22-1.22,.38-.52,.37-.98,.31-1.61-.03-.36-.48-1.3-.34-1.62,.36-.83,1.05-.52,1.68-.59,.62-.07,1.25-.2,1.74-.62,.62-.52,.9-2.33,2.04-1.6,.7,.45,1.24,3.16,1.55,3.95,.05,.12,.12,.21,.19,.3-.81,1-1.47,2.15-1.94,3.42-.03,0-.04-.01-.07-.01-1.56,.06-3.13,.11-4.69,.17-.68,.02-3.55,.46-2.69-.57Zm48.56,33.76c-3.12,2.45-2.92-3.47-3-4.79-.08-1.25-.11-2.49-.15-3.74,1.39,.06,2.76,0,4.14-.18,.02,.68,.06,1.37,.05,2.05-.02,1.64,.31,5.59-1.04,6.65Zm26.96-19.25c-4.96,3.25-10.41,5.52-16.15,6.93-.17-1.03-.36-2.03-.56-3.01,.03,0,.07-.01,.1-.02,1.47-.34,.85-2.6-.62-2.26-3.07,.71-6.21,.89-9.36,.88-1.51,0-1.51,2.34,0,2.34,.08,0,.16,0,.24,0,.13,1.13,.25,2.27,.32,3.41-.13-.01-.26-.02-.39,0-1.24,.17-2.5,.19-3.75,.12-.02-1.23-.02-2.45,0-3.68,1.08-.52,.47-2.42-.9-2.14-2.62,.53-5.36,.87-7.99,.19-1.46-.38-2.08,1.88-.62,2.26,.03,0,.06,.01,.09,.02-.14,.7-.27,1.43-.41,2.19-5.68-.96-11.12-2.55-16.24-5.29-6.53-3.5-14.14-11.06-7.64-18.48,3.31-3.78,7.31-3.45,11.25-2.01,0,.14,.01,.29,.07,.45,.88,2.32,1.93,4.56,3.25,6.67,.98,1.55,2.27,3.93,4.06,4.7,1.44,.62,2.66-.13,3.09-1.59,.55-1.87,.16-3.85-.43-5.71,2.92,1.05,5.91,1.6,8.99,1.8,1.62,2.99,4.01,7.44,7.81,7.54,4.54,.11,1.39-5.62,.04-7.77,2.53-.32,5-.89,7.46-1.69,.04,.06,.06,.11,.11,.17,1.99,2.02,7,8.79,10.5,5.63,2.7-2.44-.74-6.61-2.98-8.92,4.35-1.98,8.59-3.66,13.66-1.85,10.25,3.66,3.11,15.16-2.96,19.14Zm10.37-16.4c-.49-1.28-1.42-2.34-2.6-3.21,.47-1.65,1.11-3.16,2-4.57,.13,.5,.18,1.03,.15,1.63-.04,.63,.57,1.18,1.17,1.17,1.5-.01,2.99,.04,4.49,.11-1.06,.67-2.36,1.24-2.29,2.54,.06,1.23,1.89,2.09,2.9,3.06-1.9-.47-3.83-.68-5.81-.69,0-.01,0-.02-.01-.03Z"/>
        <path class="cls-2" d="M254.77,263.82c-4.84-1.67-9.14-4.3-12.86-7.82-1.09-1.04-2.75,.62-1.66,1.66,4.01,3.8,8.67,6.62,13.89,8.42,1.43,.49,2.04-1.77,.62-2.26Z"/>
        <path class="cls-2" d="M238.37,251.99c-1.51,0-1.51,2.34,0,2.34s1.51-2.34,0-2.34Z"/>
      </g>
    </g>
  </g>
</svg>