<svg width="225" height="260" viewBox="0 0 225 260" fill="none" xmlns="http://www.w3.org/2000/svg">
<path d="M112.71 205.91C168.414 205.91 213.571 160.74 213.571 105.021C213.571 49.3021 168.414 4.13281 112.71 4.13281C57.0054 4.13281 11.8483 49.3021 11.8483 105.021C11.8483 160.74 57.0054 205.91 112.71 205.91Z" fill="#71EEFF"/>
<path d="M189.379 221.704C174.205 228.544 160.362 230.657 158.448 226.413C156.535 222.17 167.283 213.183 182.441 206.326C197.615 199.486 211.458 197.372 213.371 201.616C215.285 205.86 204.536 214.847 189.379 221.704Z" fill="#2E2E2E"/>
<path d="M183.089 259L175.868 241.791L170.078 228.011L165.203 216.378L154.488 190.865C148.848 177.434 154.189 162.472 166.118 158.295C168.198 157.562 170.345 157.23 172.458 157.23C172.657 157.23 172.857 157.23 173.04 157.246C182.307 157.512 191.325 164.336 194.986 174.821L203.688 199.685L207.581 210.836L224.419 259" fill="#F5F5FF"/>
<path d="M183.089 259L175.868 241.791L170.078 228.011L165.203 216.378L154.488 190.865C148.848 177.434 154.189 162.472 166.118 158.295C168.198 157.562 170.345 157.23 172.458 157.23C172.657 157.23 172.857 157.23 173.04 157.246C182.307 157.512 191.325 164.336 194.986 174.821L203.688 199.685L207.581 210.836L224.419 259" stroke="#2E2E2E" stroke-width="0.54" stroke-linecap="round" stroke-linejoin="round"/>
<path d="M213.055 201.1C210.243 197.555 196.966 199.785 182.457 206.326C167.283 213.183 156.518 222.17 158.465 226.43C158.515 226.53 158.565 226.597 158.631 226.68L158.465 226.746L141.71 187.453C135.138 172.025 142.243 154.434 157.184 149.208C160.012 148.226 162.891 147.743 165.752 147.743C175.985 147.743 185.802 153.818 190.826 163.654L213.055 201.116V201.1Z" fill="#2E2E2E"/>
<path d="M36.0401 221.704C51.2143 228.544 65.0573 230.657 66.9707 226.413C68.8841 222.17 58.1358 213.183 42.9783 206.326C27.8042 199.486 13.9611 197.372 12.0477 201.616C10.1343 205.86 20.8826 214.847 36.0401 221.704Z" fill="#2E2E2E"/>
<path d="M1 259L17.838 210.853L21.7313 199.685L30.4331 174.821C34.1768 164.12 43.4776 157.23 52.9614 157.23H53.0779C55.1577 157.246 57.2374 157.579 59.284 158.295C71.2136 162.472 76.5711 177.434 70.9308 190.865L60.2157 216.378L55.3407 228.011L50.1495 240.393L42.3295 259" fill="#F5F5FF"/>
<path d="M1 259L17.838 210.853L21.7313 199.685L30.4331 174.821C34.1768 164.12 43.4776 157.23 52.9614 157.23H53.0779C55.1577 157.246 57.2374 157.579 59.284 158.295C71.2136 162.472 76.5711 177.434 70.9308 190.865L60.2157 216.378L55.3407 228.011L50.1495 240.393L42.3295 259" stroke="#2E2E2E" stroke-width="0.54" stroke-linecap="round" stroke-linejoin="round"/>
<path d="M12.3639 201.1C15.1758 197.555 28.4531 199.785 42.9617 206.326C58.1358 213.183 68.9008 222.17 66.9541 226.43C66.9042 226.53 66.8543 226.597 66.7878 226.68L66.9541 226.746L83.7089 187.453C90.281 172.025 83.1765 154.434 68.2353 149.208C65.4068 148.226 62.5283 147.743 59.6666 147.743C49.434 147.743 39.6174 153.818 34.5927 163.654L12.3639 201.116V201.1Z" fill="#2E2E2E"/>
<path d="M139.547 69.3557C135.437 75.9629 135.837 83.8016 140.429 86.8473C145.038 89.8929 152.109 87.0137 156.219 80.3899C160.328 73.7827 159.929 65.944 155.337 62.8983C150.728 59.8527 143.657 62.7319 139.547 69.3391V69.3557Z" fill="#F5F5FF" stroke="#2E2E2E" stroke-width="0.54" stroke-linecap="round" stroke-linejoin="round"/>
<path d="M151.876 66.0771C153.872 66.8594 155.387 68.7566 155.703 70.8703C156.019 72.9839 155.137 75.2473 153.473 76.5954" stroke="#2E2E2E" stroke-width="0.54" stroke-linecap="round" stroke-linejoin="round"/>
<path d="M83.9919 69.3557C88.1015 75.9629 87.7022 83.8016 83.11 86.8473C78.5012 89.8929 71.4299 87.0137 67.3203 80.3899C63.2106 73.7827 63.6099 65.944 68.2021 62.8983C72.8109 59.8527 79.8822 62.7319 83.9919 69.3391V69.3557Z" fill="#F5F5FF" stroke="#2E2E2E" stroke-width="0.54" stroke-linecap="round" stroke-linejoin="round"/>
<path d="M71.663 66.0771C69.6664 66.8594 68.1523 68.7566 67.8361 70.8703C67.52 72.9839 68.4018 75.2473 70.0657 76.5954" stroke="#2E2E2E" stroke-width="0.54" stroke-linecap="round" stroke-linejoin="round"/>
<path d="M132.193 143.449C132.559 154.633 123.624 163.87 112.443 163.87C101.262 163.87 92.6769 154.983 92.6769 144.115C92.6769 143.899 92.6769 143.666 92.6935 143.449L94.8898 113.975L95.4555 106.519L96.5536 91.8734H128.333L130.08 115.007L131.328 131.849L132.209 143.433L132.193 143.449Z" fill="#F5F5FF" stroke="#2E2E2E" stroke-width="0.56" stroke-linecap="round" stroke-linejoin="round"/>
<path d="M131.311 131.866C120.879 132.615 109.382 127.422 101.495 117.337C98.8332 113.958 96.8033 110.28 95.439 106.536L96.5371 91.8901H128.316L130.063 115.024L131.311 131.866Z" fill="#2E2E2E"/>
<path d="M146.568 87.5463C145.337 90.7417 143.54 94.0536 141.394 97.2657C137.251 103.44 131.76 109.248 126.286 112.943C120.263 116.987 112.377 118.302 105.522 115.956C100.131 114.125 95.6719 110.264 91.712 106.186C86.7371 101.094 82.2115 95.4017 79.6659 88.728C77.7025 83.5687 76.854 77.8103 76.6211 71.9354C76.5212 68.8565 76.5711 65.7609 76.7043 62.6654C76.9538 57.5727 77.4363 52.53 77.8856 47.87C78.9005 36.8358 85.5891 26.3343 95.1395 20.709C104.507 15.2002 116.453 14.3847 126.469 18.5787C136.486 22.7727 144.322 31.843 146.984 42.3779C148.765 49.451 148.299 56.7739 148.315 63.9635C148.315 64.4129 148.315 64.829 148.332 65.2783C148.365 67.4252 148.482 69.5888 148.515 71.7523C148.682 77.128 148.565 82.4869 146.585 87.563L146.568 87.5463Z" fill="#F5F5FF" stroke="#2E2E2E" stroke-width="0.54" stroke-linecap="round" stroke-linejoin="round"/>
<path d="M106.986 52.0805C110.047 52.2303 113.209 51.7809 115.871 50.3164C118.549 48.8352 120.663 46.2223 121.029 43.2099C123.042 47.1875 126.869 50.2332 131.228 51.3316C135.587 52.43 140.412 51.5646 144.089 49.0182C148.665 45.8561 151.294 39.6817 149.314 34.5058C147.117 28.7973 140.545 26.1178 134.522 24.803C122.776 22.2567 110.43 22.5729 98.8165 25.6019C95.2392 26.5339 85.2562 28.3646 83.9085 32.2423C82.5109 36.2366 88.2179 42.6108 90.8134 45.0573C95.1727 49.1514 100.946 51.8309 106.986 52.1138V52.0805Z" fill="#2E2E2E"/>
<path d="M121.661 56.1579C123.208 55.2259 124.905 54.5935 126.686 54.1109C128.466 53.6449 130.363 53.3952 132.326 53.4618C134.273 53.5284 136.303 53.9777 138.083 54.9097C139.863 55.8251 141.327 57.273 142.109 58.9872C140.313 58.3881 138.699 58.0885 137.151 58.0386C135.604 57.9886 134.123 58.1883 132.626 58.4546C129.614 58.9872 126.569 60.0357 123.142 60.4518C121.861 60.6182 120.713 59.7028 120.546 58.438C120.43 57.506 120.896 56.6073 121.661 56.1579Z" fill="#2E2E2E"/>
<path d="M105.588 60.4687C102.161 60.036 99.0995 59.0041 96.1046 58.4715C94.6071 58.2053 93.1263 58.0055 91.5789 58.0555C90.0316 58.1054 88.4177 58.4216 86.6207 59.0041C87.4027 57.2733 88.8669 55.842 90.6472 54.9266C92.4275 53.9946 94.4574 53.5453 96.404 53.4787C98.3674 53.4121 100.264 53.6784 102.044 54.1278C103.825 54.6104 105.522 55.2428 107.069 56.1748C108.167 56.8405 108.533 58.2552 107.868 59.3536C107.385 60.1691 106.47 60.5685 105.588 60.4687Z" fill="#2E2E2E"/>
<path d="M105.339 71.9852C104.657 71.436 103.991 70.8369 103.326 70.271C102.693 69.7384 102.045 69.2392 101.296 68.8897C99.8816 68.0908 98.2676 67.7413 96.687 67.6914C95.0897 67.6914 93.5091 67.9909 92.0616 68.64C91.3295 68.9562 90.6473 69.3723 89.9818 69.8383C89.283 70.3709 88.5841 70.9034 87.6358 71.1198C87.4195 71.1697 87.2032 71.0366 87.1533 70.8036C87.1366 70.7204 87.1533 70.6371 87.1699 70.5539C87.5692 69.6552 88.2181 69.0727 88.867 68.4902C89.5824 67.8911 90.3478 67.2753 91.213 66.8759C92.9101 65.9605 94.8734 65.611 96.7702 65.7109C98.6836 65.844 100.547 66.4598 102.111 67.5249C102.91 68.0409 103.575 68.7066 104.208 69.3889C104.773 70.0713 105.322 70.7536 105.855 71.4526C105.971 71.6191 105.938 71.8354 105.788 71.9686C105.655 72.0684 105.472 72.0684 105.339 71.9686V71.9852Z" fill="#2E2E2E"/>
<path d="M99.6152 69.2724C99.3656 67.5915 97.8183 66.4431 96.1378 66.6761C94.4573 66.9258 93.3093 68.4735 93.5588 70.1545C93.8084 71.8354 95.3558 72.9837 97.0363 72.7341C98.7167 72.4844 99.8648 70.9367 99.6152 69.2558V69.2724Z" fill="#2E2E2E"/>
<path d="M105.239 71.8021C103.825 72.7008 102.128 73.2001 100.347 73.2667" stroke="#2E2E2E" stroke-width="0.5" stroke-linecap="round" stroke-linejoin="round"/>
<path d="M105.405 68.0742C103.542 65.8607 100.747 64.4461 97.8517 64.263" stroke="#2E2E2E" stroke-width="0.5" stroke-linecap="round" stroke-linejoin="round"/>
<path d="M120.962 71.4859C121.495 70.7869 122.06 70.1046 122.609 69.4222C123.242 68.7398 123.907 68.0741 124.706 67.5582C126.27 66.4931 128.15 65.8939 130.047 65.7441C131.96 65.6443 133.923 65.9938 135.604 66.9091C136.469 67.3252 137.234 67.9244 137.95 68.5235C138.599 69.106 139.264 69.6885 139.647 70.5872C139.73 70.7869 139.647 71.0365 139.431 71.1198C139.347 71.153 139.264 71.1697 139.181 71.1364C138.216 70.92 137.534 70.3875 136.835 69.8549C136.169 69.3889 135.487 68.9728 134.755 68.6566C133.308 68.0076 131.727 67.6914 130.13 67.708C128.549 67.7579 126.935 68.1074 125.521 68.9063C124.789 69.2558 124.14 69.7551 123.491 70.2876C122.826 70.8535 122.16 71.436 121.478 72.0018C121.328 72.135 121.095 72.1017 120.962 71.9519C120.862 71.8188 120.862 71.6357 120.962 71.5025V71.4859Z" fill="#2E2E2E"/>
<path d="M127.202 69.2724C127.451 67.5915 128.998 66.4431 130.679 66.6761C132.359 66.9258 133.507 68.4735 133.258 70.1545C133.008 71.8354 131.461 72.9837 129.78 72.7341C128.1 72.4844 126.952 70.9367 127.185 69.2558L127.202 69.2724Z" fill="#2E2E2E"/>
<path d="M121.561 71.8021C122.975 72.7008 124.673 73.2001 126.453 73.2667" stroke="#2E2E2E" stroke-width="0.5" stroke-linecap="round" stroke-linejoin="round"/>
<path d="M121.411 68.0742C123.275 65.8607 126.07 64.4461 128.965 64.263" stroke="#2E2E2E" stroke-width="0.5" stroke-linecap="round" stroke-linejoin="round"/>
<path d="M111.312 94.6193C111.845 95.1353 112.593 95.4348 113.342 95.4348C114.091 95.4348 114.839 95.1353 115.372 94.6193C116.22 93.8038 117.735 94.3031 118.883 94.4696C120.047 94.636 121.229 94.869 122.36 94.6193C123.175 94.4363 123.924 93.9536 124.373 93.2546" stroke="#2E2E2E" stroke-width="0.45" stroke-linecap="round" stroke-linejoin="round"/>
<path d="M111.312 94.6194C110.463 93.8039 108.949 94.3031 107.801 94.4696C106.653 94.636 105.455 94.869 104.324 94.6194C103.409 94.4196 102.577 93.7539 102.294 92.8552" stroke="#2E2E2E" stroke-width="0.45" stroke-linecap="round" stroke-linejoin="round"/>
<path d="M107.984 97.9146C110.946 98.9464 114.224 99.0795 117.268 98.314" stroke="#2E2E2E" stroke-width="0.45" stroke-linecap="round" stroke-linejoin="round"/>
<path d="M113.142 107.984V113.509" stroke="#2E2E2E" stroke-width="0.54" stroke-linecap="round" stroke-linejoin="round"/>
<path d="M113.392 83.269V71.5192" stroke="#2E2E2E" stroke-width="0.54" stroke-linecap="round" stroke-linejoin="round"/>
<path d="M109.465 85.5491L111.445 86.9138C112.726 87.7959 114.124 87.7959 115.405 86.9138L117.385 85.5491" stroke="#2E2E2E" stroke-width="0.57" stroke-linecap="round" stroke-linejoin="round"/>
<path d="M148.299 63.9302C147.384 63.5641 146.585 62.9316 145.953 62.1827C144.888 60.9511 144.239 59.42 143.707 57.8722C141.327 51.0321 141.211 42.9603 142.475 35.8206C134.373 35.9371 126.536 30.911 122.959 23.6214C113.608 29.5795 102.826 32.0593 91.7619 31.5101C91.346 43.3764 85.639 54.9098 76.6876 62.6321C76.9372 57.5394 77.4197 52.4966 77.8689 47.8367C78.8839 36.8025 85.5725 26.3009 95.1229 20.6757C104.49 15.1669 116.437 14.3514 126.453 18.5454C136.469 22.7394 144.306 31.8097 146.968 42.3445C148.748 49.4177 148.282 56.7405 148.299 63.9302Z" fill="#2E2E2E"/>
<path d="M74.009 35.5876C76.5047 21.1583 90.2146 3.45044 106.736 1.23696C123.258 -0.959889 141.261 12.5041 148.465 25.6519C124.207 33.2743 99.6153 37.6846 73.9923 35.5876H74.009Z" fill="#F5F5FF" stroke="#2E2E2E" stroke-width="0.58" stroke-linecap="round" stroke-linejoin="round"/>
<path d="M151.993 30.6281C141.444 38.6332 127.268 42.2447 113.325 43.9423C99.3823 45.6232 85.1898 45.6232 71.2968 47.5704C69.4999 45.2903 68.7512 43.1601 69.1505 40.4307C69.5498 37.7012 71.1304 35.0883 73.5264 33.241C99.4987 31.6766 125.188 27.5159 149.464 19.3776C150.661 19.3776 154.322 26.8834 151.993 30.6447V30.6281Z" fill="#F5F5FF" stroke="#2E2E2E" stroke-width="0.5" stroke-linecap="round" stroke-linejoin="round"/>
<path d="M78.4512 46.5885C77.1202 43.1601 77.5195 39.1159 79.4828 36.0037" stroke="#2E2E2E" stroke-width="0.54" stroke-linecap="round" stroke-linejoin="round"/>
<path d="M141.194 25.4023C143.357 28.1317 144.755 31.4602 145.221 34.9219" stroke="#2E2E2E" stroke-width="0.54" stroke-linecap="round" stroke-linejoin="round"/>
<path d="M127.018 30.0789C129.032 33.3242 130.28 37.0355 130.612 40.8467" stroke="#2E2E2E" stroke-width="0.54" stroke-linecap="round" stroke-linejoin="round"/>
<path d="M89.4492 35.6376C88.6007 39.0827 89.3494 42.8772 91.4458 45.7398" stroke="#2E2E2E" stroke-width="0.54" stroke-linecap="round" stroke-linejoin="round"/>
<path d="M108.45 34.0731C109.648 37.3185 110.28 40.7968 110.28 44.2585" stroke="#2E2E2E" stroke-width="0.54" stroke-linecap="round" stroke-linejoin="round"/>
<path d="M100.181 36.736C99.8482 39.8149 101.03 43.0269 103.276 45.1738C103.326 44.9908 103.376 44.8077 103.425 44.6246" stroke="#2E2E2E" stroke-width="0.54" stroke-linecap="round" stroke-linejoin="round"/>
<path d="M119.781 34.5891C120.48 37.0855 120.596 39.7484 120.114 42.3114" stroke="#2E2E2E" stroke-width="0.54" stroke-linecap="round" stroke-linejoin="round"/>
<path d="M176.451 259H49.4839L50.1494 240.393L50.6153 226.963L51.1976 210.486L53.0944 157.23L53.3772 149.308L57.4703 147.826L81.263 139.222L85.8552 137.574L88.1346 136.742L94.0912 134.595L95.8881 133.946H130.246L130.962 134.213L137.634 136.609L139.896 137.425L144.489 139.089L168.98 147.943L172.757 149.308L173.023 157.246L174.038 187.236L174.804 210.154L175.353 226.73V226.83L175.852 241.808L176.451 259Z" fill="#2E2E2E"/>
</svg>
