<svg width="223" height="266" viewBox="0 0 223 266" fill="none" xmlns="http://www.w3.org/2000/svg">
<path d="M111.5 212.169C170.073 212.169 217.556 164.674 217.556 106.085C217.556 47.4957 170.073 0 111.5 0C52.9268 0 5.44385 47.4957 5.44385 106.085C5.44385 164.674 52.9268 212.169 111.5 212.169Z" fill="#71EEFF"/>
<path d="M167.607 111.212C165.683 92.8197 161.519 74.6723 155.291 57.2773C155.098 54.6523 154.713 52.0798 154.101 49.6123C152.194 41.8774 148.258 34.9824 142.956 29.5049C136.676 23.0299 128.488 18.5674 119.303 17.1674C119.005 17.1324 118.708 17.0624 118.411 17.0274C118.026 16.9574 117.658 16.9224 117.273 16.8874C116.556 16.7999 115.839 16.7649 115.122 16.7299C114.562 16.6949 113.967 16.6599 113.407 16.6599H112.935C112.795 16.6599 112.672 16.6599 112.532 16.6774C112.515 16.6599 112.497 16.6599 112.48 16.6774C92.8501 16.8874 76.4045 30.8174 71.7508 49.5948C71.4884 50.6448 71.2784 51.6948 71.1035 52.7623C61.1662 73.7273 57.7721 97.8947 58.157 121.31C59.6966 117.285 62.1459 113.61 65.2776 110.635C62.3733 116.917 62.4258 124.46 65.3475 130.742L65.3126 131.162H65.5225C65.5225 131.162 65.5925 131.32 65.6275 131.39L65.6625 131.162H159.944L159.577 130.252C160.679 129.937 162.079 130.025 163.024 129.57C162.814 127.137 162.621 124.722 162.411 122.29C163.618 124.162 164.931 124.932 166.138 126.805C165.385 120.627 164.371 113.19 162.621 107.222C164.598 108.43 166.593 109.112 167.607 111.195V111.212Z" fill="#2E2E2E"/>
<path d="M132.879 154.822C133.264 166.407 124.184 175.997 112.864 175.997C101.545 175.997 92.8499 166.792 92.8499 155.505C92.8499 155.277 92.8499 155.05 92.8499 154.822L95.0718 124.25L95.3517 120.312L96.7513 101.307H128.943L130.377 121.012L130.692 125.317L132.862 154.822H132.879Z" fill="#F5F5FF" stroke="#2E2E2E" stroke-width="0.5" stroke-linecap="round" stroke-linejoin="round"/>
<path d="M131.76 139.877C121.612 141.12 110.171 136.237 102.42 126.332C99.271 122.325 97.0841 117.915 95.8245 113.452L96.7342 101.115H128.925L130.36 120.82L130.692 125.125L131.76 139.877Z" fill="#2E2E2E"/>
<path d="M140.157 70.6648C136.116 77.1573 136.501 84.8572 141.032 87.8497C145.563 90.8422 152.509 88.0072 156.55 81.5147C160.592 75.0223 160.207 67.3223 155.676 64.3298C151.144 61.3373 144.199 64.1723 140.157 70.6648Z" fill="#F5F5FF" stroke="#2E2E2E" stroke-width="0.5" stroke-linecap="round" stroke-linejoin="round"/>
<path d="M152.281 67.4448C154.241 68.2148 155.728 70.0698 156.043 72.1523C156.358 74.2348 155.501 76.4573 153.856 77.7698" stroke="#2E2E2E" stroke-width="0.5" stroke-linecap="round" stroke-linejoin="round"/>
<path d="M85.5547 70.6648C89.5961 77.1573 89.2112 84.8572 84.6799 87.8497C80.1487 90.8422 73.2031 88.0072 69.1617 81.5147C65.1203 75.0223 65.5051 67.3223 70.0364 64.3298C74.5677 61.3373 81.5133 64.1723 85.5547 70.6648Z" fill="#F5F5FF" stroke="#2E2E2E" stroke-width="0.5" stroke-linecap="round" stroke-linejoin="round"/>
<path d="M73.4477 67.4448C71.4882 68.2148 70.0012 70.0698 69.6862 72.1523C69.3713 74.2348 70.2286 76.4573 71.8732 77.7698" stroke="#2E2E2E" stroke-width="0.5" stroke-linecap="round" stroke-linejoin="round"/>
<path d="M150.864 59.9198C150.864 60.5323 150.864 61.1273 150.829 61.7048C150.759 63.4548 150.619 65.2223 150.392 66.9373L150.147 69.3873L150.042 70.7173L149.867 72.6423C149.762 73.8148 149.692 74.9698 149.605 76.1248C149.57 76.8598 149.535 77.5773 149.482 78.3123C149.325 81.2172 149.167 84.1047 148.782 86.9747C148.782 87.0272 148.747 87.0797 148.747 87.1147C148.677 87.6572 148.59 88.2172 148.485 88.7422C148.38 89.3547 148.275 89.9322 148.118 90.5097C147.943 91.3847 147.715 92.2422 147.435 93.1172C147.365 93.4497 147.26 93.7472 147.138 94.0797C146.945 94.7097 146.683 95.3572 146.438 96.0047C145.756 97.7022 144.933 99.3472 143.989 100.992C140.087 107.817 134.086 114.082 128.086 118.23C128.051 118.282 128.016 118.3 127.998 118.3C127.263 118.825 126.528 119.297 125.811 119.735C118.481 124.215 109.82 124.46 102.228 120.592C100.653 119.805 99.1309 118.895 97.6613 117.81C97.6613 117.81 97.6263 117.81 97.6088 117.775C91.8004 113.627 86.7968 107.607 83.0528 100.992C82.7729 100.52 82.5279 100.065 82.2655 99.5922C82.143 99.3472 82.0206 99.0847 81.8981 98.8397C81.6881 98.4372 81.4782 97.9997 81.2683 97.5622C80.6734 96.4247 80.1486 95.2347 79.6587 94.0797C79.5362 93.7472 79.3963 93.4322 79.2913 93.0997C77.5243 88.4447 76.8944 83.2472 76.4746 78.1198C76.4046 77.3323 76.3346 76.5098 76.2821 75.7223C76.2121 74.8298 76.1421 73.9198 76.0722 73.0448L75.8622 70.6473C75.8097 70.3848 75.7747 70.1223 75.7398 69.8773C75.6698 69.5798 75.6348 69.2998 75.5998 69.0023C75.4073 67.9173 75.2674 66.8148 75.1449 65.6773C74.97 63.8223 74.865 61.8973 74.865 59.9198C74.865 59.7623 74.865 59.5873 74.865 59.4123C74.865 58.5023 74.9 57.6098 74.9525 56.7173C74.9525 56.4023 74.9875 56.0873 75.005 55.7723C75.0924 54.7398 75.2149 53.7248 75.3724 52.7448C76.2471 46.6724 78.1891 41.0199 80.9883 36.0674C81.6881 34.8249 82.4404 33.6349 83.2627 32.4799C85.957 28.6124 89.2636 25.2874 92.9551 22.6799C93.2175 22.4699 93.4974 22.2774 93.7599 22.1024C94.0923 21.8749 94.4247 21.6474 94.7571 21.4374C96.0693 20.6324 97.4164 19.8974 98.7985 19.2674C102.84 17.4124 107.231 16.345 111.85 16.2225C111.85 16.1875 111.885 16.1875 111.902 16.2225V16.1875C112.13 16.17 112.375 16.17 112.602 16.17H112.83C113.407 16.17 114.037 16.1875 114.614 16.24C115.384 16.275 116.119 16.3275 116.871 16.4325C117.273 16.4675 117.676 16.52 118.061 16.59C118.376 16.625 118.691 16.695 119.006 16.7475C121.63 17.2549 124.149 18.0424 126.563 19.1449C128.418 19.9499 130.22 20.9474 131.917 22.1024C132.004 22.1549 132.092 22.2249 132.179 22.2774C133.264 23.0124 134.296 23.7824 135.294 24.6399C139.055 27.8074 142.274 31.7449 144.811 36.2599C144.986 36.5399 145.108 36.8024 145.266 37.0649V37.0999C147.715 41.7724 149.482 47.0049 150.287 52.6223C150.287 52.6573 150.287 52.6923 150.287 52.7448C150.444 53.7248 150.549 54.7398 150.637 55.7723C150.637 55.9473 150.672 56.1223 150.672 56.2973C150.759 57.3123 150.794 58.3623 150.794 59.4123C150.794 59.5873 150.794 59.7623 150.794 59.9198H150.864Z" fill="#F5F5FF" stroke="#2E2E2E" stroke-width="0.5" stroke-linecap="round" stroke-linejoin="round"/>
<path d="M93.0775 22.6799C90.4007 39.1649 84.6273 55.1248 76.1421 69.3523C76.0546 69.5098 75.9496 69.6848 75.8272 69.8773C75.7572 69.5973 75.7222 69.2998 75.6872 69.0198C75.4947 67.9173 75.3548 66.8323 75.2498 65.6773C75.0574 63.8398 74.9524 61.8973 74.9524 59.9198C74.9524 59.7623 74.9524 59.5873 74.9699 59.4123C74.9699 57.1373 75.1274 54.8973 75.4773 52.7273C76.562 45.1323 79.3262 38.2024 83.3501 32.4624C86.0619 28.5949 89.351 25.2699 93.0425 22.6624L93.0775 22.6799Z" fill="#2E2E2E"/>
<path d="M150.969 59.9198C150.969 60.5323 150.969 61.1273 150.934 61.7048C150.864 63.4548 150.724 65.2223 150.497 66.9373L150.252 69.4048L150.13 70.7348C149.815 70.2273 149.535 69.7723 149.29 69.3523C140.752 55.0023 134.926 38.9199 132.284 22.295C133.352 23.0125 134.401 23.7999 135.399 24.6574C139.387 28.0174 142.764 32.2349 145.353 37.0824C145.371 37.0824 145.371 37.0999 145.371 37.0999C147.82 41.7724 149.587 47.0224 150.41 52.6399C150.41 52.6749 150.427 52.7099 150.427 52.7624C150.742 54.9324 150.917 57.1548 150.917 59.4473C150.934 59.6048 150.934 59.7798 150.934 59.9548L150.969 59.9198Z" fill="#2E2E2E"/>
<path d="M150.829 56.2973C149.78 57.3298 148.538 58.1173 147.068 58.4673C142.939 59.4823 138.653 56.5948 136.658 52.8324C134.646 49.0874 135.276 43.9249 135.066 39.6724C134.157 46.4974 129.573 52.1849 123.817 55.9823C128.191 51.5024 129.643 44.0124 128.646 37.8349C128.348 39.1999 127.788 40.6349 127.071 42.0874C122.61 50.9249 113.337 56.2973 103.435 56.2448C98.5362 56.2273 93.76 56.1923 92.3953 56.1923C97.8014 53.4448 100.863 47.6874 103.592 42.2624C97.4515 49.4199 89.3687 54.8448 80.4461 57.8548C78.5916 58.4848 76.4921 58.1173 75.11 56.7348H75.0925C75.0925 56.7348 75.0925 56.6823 75.0925 56.6648C75.18 55.3173 75.32 54.0048 75.5299 52.7274C76.4047 46.6549 78.3467 41.0024 81.1459 36.0499C81.8457 34.8074 82.598 33.6174 83.4203 32.4624C86.1145 28.5949 89.4211 25.2699 93.1126 22.6624C93.3751 22.4524 93.655 22.2599 93.9174 22.0849C94.2498 21.8574 94.5822 21.63 94.9147 21.42C96.2268 20.615 97.5739 19.88 98.9561 19.25C102.997 17.395 107.389 16.3275 112.008 16.205C112.008 16.17 112.043 16.17 112.06 16.205V16.17C112.287 16.1525 112.532 16.1525 112.76 16.1525H112.987C113.565 16.1525 114.194 16.17 114.772 16.2225C115.542 16.2575 116.276 16.31 117.029 16.415C117.431 16.45 117.833 16.5025 118.218 16.5725C118.533 16.6075 118.848 16.6775 119.163 16.73C121.787 17.2375 124.307 18.025 126.721 19.1275C128.576 19.9325 130.378 20.93 132.075 22.0849C132.162 22.1374 132.25 22.2074 132.337 22.2599C133.422 22.9949 134.454 23.7649 135.451 24.6224C139.213 27.7899 142.432 31.7274 144.969 36.2424C145.144 36.5224 145.266 36.7849 145.423 37.0474V37.0824C147.873 41.7549 149.64 46.9874 150.445 52.6049C150.445 52.6399 150.445 52.6749 150.445 52.7274C150.62 53.8648 150.742 55.0548 150.829 56.2623C150.829 56.2623 150.829 56.2623 150.829 56.2798V56.2973Z" fill="#2E2E2E"/>
<path d="M140.052 47.1099C145.983 54.7748 149.36 64.4173 149.5 74.1123C149.64 83.8073 146.561 93.5372 140.857 101.395C148.223 94.4122 152.981 86.5897 154.014 76.4923C155.046 66.3948 152.369 55.9648 146.596 47.6349C145.861 46.5674 144.986 45.4649 143.744 45.0449C142.502 44.6249 140.227 45.8149 140.017 47.1099H140.052Z" fill="#2E2E2E"/>
<path d="M120.528 64.5048C121.717 62.8948 123.449 61.9673 125.146 61.3023C126.878 60.6723 128.68 60.3748 130.482 60.3223C132.284 60.2873 134.069 60.5148 135.801 61.0223C137.533 61.5648 139.248 62.3173 140.7 63.6823C138.828 64.2073 137.148 64.4348 135.486 64.6448C133.824 64.8198 132.197 64.9073 130.587 64.9423C128.978 64.9773 127.368 64.9423 125.724 64.8723C124.079 64.7848 122.452 64.6798 120.528 64.5048Z" fill="#2E2E2E"/>
<path d="M105.184 64.5048C103.994 62.8948 102.262 61.9673 100.565 61.3023C98.8332 60.6723 97.0312 60.3748 95.2292 60.3223C93.4272 60.2873 91.6427 60.5148 89.9106 61.0223C88.1786 61.5648 86.4641 62.3173 85.012 63.6823C86.884 64.2073 88.5635 64.4348 90.2255 64.6448C91.8876 64.8198 93.5147 64.9073 95.1242 64.9423C96.7338 64.9773 98.3433 64.9423 99.9879 64.8723C101.632 64.7848 103.26 64.6798 105.184 64.5048Z" fill="#2E2E2E"/>
<path d="M119.95 78.8023C120.878 77.4198 121.805 76.0198 123.047 74.7598C124.237 73.4823 125.741 72.4323 127.473 71.8023C129.205 71.1548 131.182 71.1023 132.967 71.6273C134.786 72.0998 136.326 73.1498 137.638 74.3748L137.533 74.2873C138.268 74.8648 139.02 75.4248 139.755 76.0198L139.248 75.8623C139.248 75.8623 139.493 75.8798 139.703 75.8098C139.93 75.7398 140.175 75.6348 140.42 75.5123C140.91 75.2673 141.4 74.9873 141.837 74.6723H141.855C142.029 74.5323 142.274 74.5848 142.397 74.7423C142.502 74.8823 142.484 75.0748 142.397 75.1973C142.012 75.6873 141.61 76.1073 141.155 76.5273C140.927 76.7373 140.682 76.9298 140.42 77.1223C140.122 77.2973 139.878 77.5248 139.265 77.5948C139.125 77.5948 138.985 77.5773 138.863 77.5073L138.758 77.4373C137.953 76.9473 137.183 76.4223 136.396 75.9148L136.343 75.8798L136.291 75.8448C135.136 74.8298 133.807 74.0598 132.407 73.6398C131.007 73.1848 129.52 73.2548 128.086 73.6398C126.651 74.0423 125.321 74.8823 124.097 75.8798C122.89 76.8773 121.77 78.1373 120.563 79.2923C120.405 79.4323 120.16 79.4323 120.02 79.2923C119.898 79.1523 119.88 78.9598 119.985 78.8023H119.95Z" fill="#2E2E2E"/>
<path d="M126.616 75.5648C126.738 73.7973 128.278 72.4673 130.063 72.5898C131.83 72.7123 133.159 74.2523 133.037 76.0373C132.914 77.8048 131.375 79.1348 129.59 79.0123C127.823 78.8898 126.494 77.3498 126.616 75.5648Z" fill="#2E2E2E"/>
<path d="M136.063 78.5398C137.253 78.2773 138.373 77.7348 139.318 76.9823" stroke="#2E2E2E" stroke-width="0.5" stroke-linecap="round" stroke-linejoin="round"/>
<path d="M120.283 75.0222C121.787 72.3797 124.394 70.3847 127.351 69.6497" stroke="#2E2E2E" stroke-width="0.5" stroke-linecap="round" stroke-linejoin="round"/>
<path d="M105.184 79.2923C103.977 78.1373 102.857 76.8773 101.65 75.8798C100.425 74.8823 99.0957 74.0423 97.6611 73.6398C96.244 73.2548 94.7569 73.1848 93.3397 73.6398C91.9401 74.0598 90.593 74.8298 89.4558 75.8448L89.4033 75.8798L89.3508 75.9148C88.5635 76.4223 87.7938 76.9473 86.989 77.4373L86.884 77.5073C86.7615 77.5773 86.6216 77.6123 86.4816 77.5948C85.8693 77.5073 85.6244 77.2973 85.3269 77.1223C85.047 76.9298 84.8195 76.7373 84.5921 76.5273C84.1372 76.1073 83.7349 75.6873 83.35 75.1973C83.2275 75.0223 83.245 74.7948 83.4199 74.6548C83.5599 74.5498 83.7349 74.5498 83.8748 74.6548H83.8923C84.3297 74.9698 84.8196 75.2673 85.3094 75.4948C85.5544 75.6173 85.7993 75.7223 86.0267 75.7923C86.2367 75.8623 86.5166 75.8973 86.4816 75.8448L85.9742 76.0023C86.6916 75.4073 87.4439 74.8473 88.1962 74.2698L88.0912 74.3573C89.4033 73.1498 90.9604 72.0823 92.7624 71.6098C94.5469 71.0848 96.5239 71.1373 98.2559 71.7848C99.988 72.4148 101.493 73.4823 102.682 74.7423C103.924 76.0023 104.834 77.4023 105.779 78.7848C105.901 78.9598 105.849 79.2047 105.674 79.3097C105.516 79.4147 105.324 79.3972 105.184 79.2747V79.2923Z" fill="#2E2E2E"/>
<path d="M99.1132 75.5648C98.9908 73.7973 97.4512 72.4673 95.6667 72.5898C93.8822 72.7123 92.57 74.2523 92.6925 76.0373C92.815 77.8048 94.3545 79.1347 96.1391 79.0122C97.9061 78.8898 99.2357 77.3498 99.1132 75.5648Z" fill="#2E2E2E"/>
<path d="M89.666 78.5397C88.4763 78.2772 87.3566 77.7347 86.4119 76.9822" stroke="#2E2E2E" stroke-width="0.5" stroke-linecap="round" stroke-linejoin="round"/>
<path d="M105.429 75.0222C103.925 72.3797 101.318 70.3847 98.3611 69.6497" stroke="#2E2E2E" stroke-width="0.5" stroke-linecap="round" stroke-linejoin="round"/>
<path d="M113.092 107.45C114.666 107.38 116.224 107.187 117.816 106.977C118.183 106.925 123.204 106.347 123.169 106.032L123.029 104.965C121.839 105.035 120.685 104.3 119.81 103.617L119.425 103.302C118.498 102.55 117.536 101.762 116.328 101.395C115.156 101.045 113.582 101.22 112.707 102.182C111.815 101.22 110.258 101.027 109.068 101.395C107.878 101.78 106.916 102.55 105.971 103.302L105.586 103.617C104.712 104.282 103.557 105.017 102.367 104.965L102.227 106.032C104.257 106.802 106.829 107.03 108.963 107.31C110.363 107.485 111.727 107.502 113.109 107.45H113.092Z" fill="#2E2E2E"/>
<path d="M121.455 105.91C122.61 105.682 123.747 105.332 124.831 104.86" stroke="#2E2E2E" stroke-width="0.58" stroke-linecap="round" stroke-linejoin="round"/>
<path d="M104.274 105.91C103.12 105.682 101.982 105.332 100.898 104.86" stroke="#2E2E2E" stroke-width="0.58" stroke-linecap="round" stroke-linejoin="round"/>
<path d="M106.969 110.355C110.765 111.247 114.754 111.352 118.585 110.635" stroke="#2E2E2E" stroke-width="0.5" stroke-linecap="round" stroke-linejoin="round"/>
<path d="M108.753 93.2047C110.94 95.2172 114.597 95.3922 116.976 93.5897" stroke="#2E2E2E" stroke-width="0.61" stroke-linecap="round" stroke-linejoin="round"/>
<path d="M112.865 74.9348V88.2172" stroke="#2E2E2E" stroke-width="0.5" stroke-linecap="round" stroke-linejoin="round"/>
<path d="M34.7482 218.889C48.9544 225.294 61.9359 227.272 63.7204 223.299C65.5049 219.327 55.4451 210.909 41.239 204.487C27.0328 198.082 14.0513 196.104 12.2668 200.077C10.4823 204.049 20.5421 212.467 34.7482 218.889Z" fill="#2E2E2E"/>
<path d="M1 265.177C1.05249 265.002 1.12248 264.844 1.17496 264.669L20.1048 210.577L24.2337 198.782L32.5614 174.982C35.2032 167.404 40.8192 161.874 47.24 159.617C49.3219 158.882 51.4913 158.497 53.6607 158.497C55.6552 158.497 57.6496 158.829 59.6091 159.512C70.7711 163.432 75.7747 177.432 70.5087 190.014L59.6616 215.844L55.7251 225.207L52.5235 232.837L38.9297 265.177" fill="#F5F5FF"/>
<path d="M1 265.177C1.05249 265.002 1.12248 264.844 1.17496 264.669L20.1048 210.577L24.2337 198.782L32.5614 174.982C35.2032 167.404 40.8192 161.874 47.24 159.617C49.3219 158.882 51.4913 158.497 53.6607 158.497C55.6552 158.497 57.6496 158.829 59.6091 159.512C70.7711 163.432 75.7747 177.432 70.5087 190.014L59.6616 215.844L55.7251 225.207L52.5235 232.837L38.9297 265.177" stroke="#2E2E2E" stroke-width="0.5" stroke-linecap="round" stroke-linejoin="round"/>
<path d="M12.5818 199.587C15.2061 196.262 27.6627 198.362 41.239 204.469C55.4451 210.892 65.5224 219.309 63.7204 223.299C63.6854 223.387 63.6329 223.457 63.563 223.544L63.7204 223.614L79.4136 186.812C85.572 172.357 78.9238 155.889 64.9276 150.989C62.2858 150.062 59.5915 149.607 56.8973 149.607C47.3099 149.607 38.1248 155.294 33.4011 164.517L12.5818 199.604V199.587Z" fill="#2E2E2E"/>
<path d="M188.252 218.889C174.046 225.294 161.064 227.272 159.28 223.299C157.495 219.327 167.555 210.909 181.761 204.487C195.967 198.082 208.949 196.104 210.733 200.077C212.518 204.049 202.458 212.467 188.252 218.889Z" fill="#2E2E2E"/>
<path d="M184.071 265.177L169.654 230.894L167.275 225.207L163.339 215.844L160.732 209.649L156.306 199.079L152.492 190.014C147.208 177.432 152.229 163.432 163.391 159.512C165.333 158.829 167.345 158.497 169.322 158.497C171.089 158.497 172.839 158.76 174.553 159.25C181.464 161.192 187.622 166.949 190.439 174.982L198.767 198.782L202.895 210.577L221.825 264.669C221.878 264.844 221.948 265.002 222 265.177" fill="#F5F5FF"/>
<path d="M184.071 265.177L169.654 230.894L167.275 225.207L163.339 215.844L160.732 209.649L156.306 199.079L152.492 190.014C147.208 177.432 152.229 163.432 163.391 159.512C165.333 158.829 167.345 158.497 169.322 158.497C171.089 158.497 172.839 158.76 174.553 159.25C181.464 161.192 187.622 166.949 190.439 174.982L198.767 198.782L202.895 210.577L221.825 264.669C221.878 264.844 221.948 265.002 222 265.177" stroke="#2E2E2E" stroke-width="0.5" stroke-linecap="round" stroke-linejoin="round"/>
<path d="M210.418 199.587C207.794 196.262 195.337 198.362 181.761 204.469C167.555 210.892 157.477 219.309 159.279 223.299C159.314 223.387 159.367 223.457 159.437 223.544L159.279 223.614L143.586 186.812C137.428 172.357 144.076 155.889 158.072 150.989C160.714 150.062 163.408 149.607 166.103 149.607C175.69 149.607 184.875 155.294 189.599 164.517L210.418 199.604V199.587Z" fill="#2E2E2E"/>
<path d="M175.603 181.667L171.124 203.087C172.016 205.047 172.716 207.112 173.188 209.264C173.678 211.504 173.941 213.814 173.941 216.194C173.941 219.029 173.573 221.794 172.856 224.419C172.261 226.694 171.421 228.864 170.354 230.894C168.605 234.254 166.295 237.282 163.513 239.819L158.247 265.177H63.4756L58.2096 239.102C56.3026 237.247 54.623 235.129 53.2234 232.837C51.5614 230.107 50.2842 227.114 49.4969 223.929C48.8846 221.462 48.5522 218.872 48.5522 216.194C48.5522 213.517 48.9021 210.839 49.5319 208.319C49.9343 206.727 50.4416 205.187 51.054 203.699L46.6102 181.667C44.7032 173.547 45.0706 165.602 47.9398 159.617C50.3017 154.647 54.3956 151.042 60.344 149.765C61.8485 149.45 63.4931 149.275 65.2601 149.275H159.28C161.029 149.275 162.639 149.45 164.108 149.765C169.742 150.99 173.328 154.472 175.253 159.25C177.72 165.287 177.545 173.389 175.603 181.667Z" fill="#2E2E2E"/>
<path d="M175.602 181.667C174.938 185.254 174.343 188.859 173.625 192.429C172.943 196.017 172.261 199.587 171.509 203.157V202.912C172.891 205.992 173.818 209.282 174.185 212.659C174.535 216.037 174.343 219.449 173.643 222.757C172.961 226.064 171.648 229.232 169.951 232.137C168.237 235.042 166.015 237.614 163.513 239.819C165.91 237.492 167.922 234.797 169.514 231.892C171.124 228.987 172.226 225.837 172.891 222.599C174.185 216.124 173.433 209.264 170.756 203.227C170.721 203.157 170.721 203.069 170.739 202.982C171.491 199.412 172.296 195.859 173.101 192.289C173.87 188.719 174.763 185.184 175.585 181.632L175.602 181.667Z" fill="white"/>
<path d="M58.2093 239.102C55.8824 236.914 53.818 234.412 52.2434 231.594C50.6689 228.794 49.4792 225.749 48.8319 222.582C48.1845 219.414 47.9921 216.142 48.307 212.922C48.6044 209.702 49.4442 206.534 50.7038 203.542V203.769C49.2167 196.419 47.8871 189.034 46.6274 181.649C48.3245 188.947 49.9691 196.279 51.4561 203.612C51.4561 203.699 51.4561 203.769 51.4386 203.839C49.0418 209.684 48.3595 216.212 49.5667 222.407C50.179 225.504 51.1937 228.532 52.6808 231.332C54.1504 234.132 56.0049 236.774 58.2268 239.067L58.2093 239.102Z" fill="white"/>
<path d="M134.891 141.435H87.6365V155.82H134.891V141.435Z" fill="#2E2E2E"/>
<path d="M135.643 148.837C135.801 150.622 135.871 152.442 135.871 154.297C135.871 176.4 124.954 194.337 111.465 194.337C97.9761 194.337 87.0591 176.417 87.0591 154.297C87.0591 152.722 87.1116 151.165 87.2165 149.625" stroke="white" stroke-width="0.5" stroke-linecap="round" stroke-linejoin="round"/>
</svg>
